<svg id="visual" viewBox="0 0 900 600" width="900" height="600" xmlns="http://www.w3.org/2000/svg" xmlns:xlink="http://www.w3.org/1999/xlink" version="1.1"><rect x="0" y="0" width="900" height="600" fill="#001220"></rect><defs><linearGradient id="grad1_0" x1="33.3%" y1="100%" x2="100%" y2="0%"><stop offset="20%" stop-color="#5af7ae" stop-opacity="1"></stop><stop offset="80%" stop-color="#5af7ae" stop-opacity="1"></stop></linearGradient></defs><defs><linearGradient id="grad1_1" x1="33.3%" y1="100%" x2="100%" y2="0%"><stop offset="20%" stop-color="#5af7ae" stop-opacity="1"></stop><stop offset="80%" stop-color="#00d4ad" stop-opacity="1"></stop></linearGradient></defs><defs><linearGradient id="grad1_2" x1="33.3%" y1="100%" x2="100%" y2="0%"><stop offset="20%" stop-color="#00b1a6" stop-opacity="1"></stop><stop offset="80%" stop-color="#00d4ad" stop-opacity="1"></stop></linearGradient></defs><defs><linearGradient id="grad1_3" x1="33.3%" y1="100%" x2="100%" y2="0%"><stop offset="20%" stop-color="#00b1a6" stop-opacity="1"></stop><stop offset="80%" stop-color="#008e97" stop-opacity="1"></stop></linearGradient></defs><defs><linearGradient id="grad1_4" x1="33.3%" y1="100%" x2="100%" y2="0%"><stop offset="20%" stop-color="#006c80" stop-opacity="1"></stop><stop offset="80%" stop-color="#008e97" stop-opacity="1"></stop></linearGradient></defs><defs><linearGradient id="grad1_5" x1="33.3%" y1="100%" x2="100%" y2="0%"><stop offset="20%" stop-color="#006c80" stop-opacity="1"></stop><stop offset="80%" stop-color="#004b63" stop-opacity="1"></stop></linearGradient></defs><defs><linearGradient id="grad1_6" x1="33.3%" y1="100%" x2="100%" y2="0%"><stop offset="20%" stop-color="#002d42" stop-opacity="1"></stop><stop offset="80%" stop-color="#004b63" stop-opacity="1"></stop></linearGradient></defs><defs><linearGradient id="grad1_7" x1="33.3%" y1="100%" x2="100%" y2="0%"><stop offset="20%" stop-color="#002d42" stop-opacity="1"></stop><stop offset="80%" stop-color="#001220" stop-opacity="1"></stop></linearGradient></defs><defs><linearGradient id="grad2_0" x1="0%" y1="100%" x2="66.7%" y2="0%"><stop offset="20%" stop-color="#5af7ae" stop-opacity="1"></stop><stop offset="80%" stop-color="#5af7ae" stop-opacity="1"></stop></linearGradient></defs><defs><linearGradient id="grad2_1" x1="0%" y1="100%" x2="66.7%" y2="0%"><stop offset="20%" stop-color="#00d4ad" stop-opacity="1"></stop><stop offset="80%" stop-color="#5af7ae" stop-opacity="1"></stop></linearGradient></defs><defs><linearGradient id="grad2_2" x1="0%" y1="100%" x2="66.7%" y2="0%"><stop offset="20%" stop-color="#00d4ad" stop-opacity="1"></stop><stop offset="80%" stop-color="#00b1a6" stop-opacity="1"></stop></linearGradient></defs><defs><linearGradient id="grad2_3" x1="0%" y1="100%" x2="66.7%" y2="0%"><stop offset="20%" stop-color="#008e97" stop-opacity="1"></stop><stop offset="80%" stop-color="#00b1a6" stop-opacity="1"></stop></linearGradient></defs><defs><linearGradient id="grad2_4" x1="0%" y1="100%" x2="66.7%" y2="0%"><stop offset="20%" stop-color="#008e97" stop-opacity="1"></stop><stop offset="80%" stop-color="#006c80" stop-opacity="1"></stop></linearGradient></defs><defs><linearGradient id="grad2_5" x1="0%" y1="100%" x2="66.7%" y2="0%"><stop offset="20%" stop-color="#004b63" stop-opacity="1"></stop><stop offset="80%" stop-color="#006c80" stop-opacity="1"></stop></linearGradient></defs><defs><linearGradient id="grad2_6" x1="0%" y1="100%" x2="66.7%" y2="0%"><stop offset="20%" stop-color="#004b63" stop-opacity="1"></stop><stop offset="80%" stop-color="#002d42" stop-opacity="1"></stop></linearGradient></defs><defs><linearGradient id="grad2_7" x1="0%" y1="100%" x2="66.7%" y2="0%"><stop offset="20%" stop-color="#001220" stop-opacity="1"></stop><stop offset="80%" stop-color="#002d42" stop-opacity="1"></stop></linearGradient></defs><g transform="translate(900, 600)"><path d="M-459.7 0C-421.6 -64.9 -383.4 -129.7 -349.9 -202C-316.3 -274.3 -287.4 -353.9 -229.9 -398.1C-172.3 -442.3 -86.2 -451 0 -459.7L0 0Z" fill="#012031"></path><path d="M-402.2 0C-368.9 -56.8 -335.5 -113.5 -306.1 -176.8C-276.8 -240 -251.5 -309.7 -201.1 -348.4C-150.8 -387 -75.4 -394.6 0 -402.2L0 0Z" fill="#003c53"></path><path d="M-344.8 0C-316.2 -48.6 -287.6 -97.3 -262.4 -151.5C-237.3 -205.7 -215.5 -265.5 -172.4 -298.6C-129.2 -331.7 -64.6 -338.3 0 -344.8L0 0Z" fill="#005b72"></path><path d="M-287.3 0C-263.5 -40.5 -239.6 -81.1 -218.7 -126.3C-197.7 -171.4 -179.6 -221.2 -143.7 -248.8C-107.7 -276.4 -53.8 -281.9 0 -287.3L0 0Z" fill="#007d8c"></path><path d="M-229.9 0C-210.8 -32.4 -191.7 -64.9 -174.9 -101C-158.2 -137.1 -143.7 -177 -114.9 -199.1C-86.2 -221.2 -43.1 -225.5 0 -229.9L0 0Z" fill="#00a09f"></path><path d="M-172.4 0C-158.1 -24.3 -143.8 -48.6 -131.2 -75.8C-118.6 -102.9 -107.8 -132.7 -86.2 -149.3C-64.6 -165.9 -32.3 -169.1 0 -172.4L0 0Z" fill="#00c3ab"></path><path d="M-114.9 0C-105.4 -16.2 -95.9 -32.4 -87.5 -50.5C-79.1 -68.6 -71.8 -88.5 -57.5 -99.5C-43.1 -110.6 -21.5 -112.8 0 -114.9L0 0Z" fill="#2fe6ae"></path><path d="M-57.5 0C-52.7 -8.1 -47.9 -16.2 -43.7 -25.3C-39.5 -34.3 -35.9 -44.2 -28.7 -49.8C-21.5 -55.3 -10.8 -56.4 0 -57.5L0 0Z" fill="#5af7ae"></path></g><g transform="translate(0, 0)"><path d="M459.7 0C439.1 75 418.5 150 382.8 221C347 292 296.2 359 229.9 398.1C163.5 437.2 81.8 448.5 0 459.7L0 0Z" fill="#012031"></path><path d="M402.2 0C384.2 65.6 366.2 131.2 334.9 193.4C303.7 255.5 259.2 314.1 201.1 348.4C143.1 382.6 71.5 392.4 0 402.2L0 0Z" fill="#003c53"></path><path d="M344.8 0C329.3 56.2 313.9 112.5 287.1 165.7C260.3 219 222.1 269.3 172.4 298.6C122.7 327.9 61.3 336.4 0 344.8L0 0Z" fill="#005b72"></path><path d="M287.3 0C274.4 46.9 261.6 93.7 239.2 138.1C216.9 182.5 185.1 224.4 143.7 248.8C102.2 273.3 51.1 280.3 0 287.3L0 0Z" fill="#007d8c"></path><path d="M229.9 0C219.6 37.5 209.3 75 191.4 110.5C173.5 146 148.1 179.5 114.9 199.1C81.8 218.6 40.9 224.2 0 229.9L0 0Z" fill="#00a09f"></path><path d="M172.4 0C164.7 28.1 156.9 56.2 143.5 82.9C130.1 109.5 111.1 134.6 86.2 149.3C61.3 164 30.7 168.2 0 172.4L0 0Z" fill="#00c3ab"></path><path d="M114.9 0C109.8 18.7 104.6 37.5 95.7 55.2C86.8 73 74 89.8 57.5 99.5C40.9 109.3 20.4 112.1 0 114.9L0 0Z" fill="#2fe6ae"></path><path d="M57.5 0C54.9 9.4 52.3 18.7 47.8 27.6C43.4 36.5 37 44.9 28.7 49.8C20.4 54.7 10.2 56.1 0 57.5L0 0Z" fill="#5af7ae"></path></g></svg>