<svg id="visual" viewBox="0 0 900 600" width="900" height="600" xmlns="http://www.w3.org/2000/svg" xmlns:xlink="http://www.w3.org/1999/xlink" version="1.1"><rect x="0" y="0" width="900" height="600" fill="#001220"></rect><path d="M0 372L25 370.3C50 368.7 100 365.3 150 360.8C200 356.3 250 350.7 300 348C350 345.3 400 345.7 450 343.7C500 341.7 550 337.3 600 343.5C650 349.7 700 366.3 750 365.3C800 364.3 850 345.7 875 336.3L900 327L900 601L875 601C850 601 800 601 750 601C700 601 650 601 600 601C550 601 500 601 450 601C400 601 350 601 300 601C250 601 200 601 150 601C100 601 50 601 25 601L0 601Z" fill="#1f88f3"></path><path d="M0 395L25 394.5C50 394 100 393 150 394.2C200 395.3 250 398.7 300 406.8C350 415 400 428 450 426C500 424 550 407 600 402.3C650 397.7 700 405.3 750 408.2C800 411 850 409 875 408L900 407L900 601L875 601C850 601 800 601 750 601C700 601 650 601 600 601C550 601 500 601 450 601C400 601 350 601 300 601C250 601 200 601 150 601C100 601 50 601 25 601L0 601Z" fill="#00b6ff"></path><path d="M0 460L25 460.2C50 460.3 100 460.7 150 464.2C200 467.7 250 474.3 300 477C350 479.7 400 478.3 450 474C500 469.7 550 462.3 600 465C650 467.7 700 480.3 750 483.3C800 486.3 850 479.7 875 476.3L900 473L900 601L875 601C850 601 800 601 750 601C700 601 650 601 600 601C550 601 500 601 450 601C400 601 350 601 300 601C250 601 200 601 150 601C100 601 50 601 25 601L0 601Z" fill="#00ddff"></path><path d="M0 535L25 536C50 537 100 539 150 539.8C200 540.7 250 540.3 300 535.5C350 530.7 400 521.3 450 517.8C500 514.3 550 516.7 600 520.3C650 524 700 529 750 528.2C800 527.3 850 520.7 875 517.3L900 514L900 601L875 601C850 601 800 601 750 601C700 601 650 601 600 601C550 601 500 601 450 601C400 601 350 601 300 601C250 601 200 601 150 601C100 601 50 601 25 601L0 601Z" fill="#59ffee"></path></svg>